<?xml version="1.0" encoding="UTF-8"?>
<svg width="512px" height="512px" viewBox="0 0 512 512" version="1.1" xmlns="http://www.w3.org/2000/svg" xmlns:xlink="http://www.w3.org/1999/xlink">
    <title>logo-foregorund</title>
    <g id="logo-foregorund" stroke="none" stroke-width="1" fill="none" fill-rule="evenodd">
        <g id="icon" transform="translate(-0.258065, -0.017476)" fill="#FFFFFF">
            <g id="Group" transform="translate(194.000000, 186.000000)">
                <g id="soil-site-icon" transform="translate(20.477201, 3.612460)">
                    <path d="M94.6154164,96.3893516 C92.3284221,104.721604 88.5522223,112.570754 83.4691036,119.558229 C83.8955,112.533488 83.1645346,105.486022 81.3053006,98.6980589 C78.0505045,86.7273206 71.7272903,76.6471772 63.9721476,68.2258491 C65.0858697,51.4240952 70.6817552,33.3680042 80.6461589,14.725647 C96.4564673,44.3116405 101.288658,72.4387855 94.6154164,96.3893516 L94.6154164,96.3893516 Z M53.133905,128.171911 C37.666303,124.559579 23.730057,112.894568 12.5846848,94.3142631 C19.5981141,94.3779566 26.1312958,95.0740356 32.1343926,96.3661039 C36.2708661,104.7418 41.8888587,112.567002 49.4867405,119.100136 C54.3594429,123.302542 59.8310958,126.748361 65.7200205,129.322943 C61.4920281,129.525853 57.2558805,129.138687 53.133905,128.171911 L53.133905,128.171911 Z M27.9659662,50.137322 C39.3025896,56.1286541 48.7718968,62.9830668 56.2365851,70.5498636 C55.8567144,81.6740137 57.3578902,91.0309035 59.4860815,98.4835361 C59.6920355,99.2141864 59.907143,99.9220038 60.1268273,100.625255 C52.9230141,95.2367091 44.7580822,91.7752535 36.4833082,89.6381015 C31.526682,78.5139513 28.6295957,65.2526492 27.9659662,50.137322 L27.9659662,50.137322 Z M76.1781769,117.103955 C71.8051093,110.669737 68.5118513,103.582799 66.4244649,96.1162036 C64.8804338,90.6050478 63.941409,84.9469278 63.622573,79.2380054 C68.4948283,85.7243864 72.0006437,92.6462166 74.0618055,99.9082417 C75.9251325,106.489877 76.3300036,112.418339 76.1781769,117.103955 L76.1781769,117.103955 Z M69.9149154,123.064336 C64.0279374,120.672094 58.5787032,117.295618 53.7951105,113.075709 C49.1681127,108.966886 45.1751666,104.17966 41.9489493,98.8722015 C50.0088517,101.875647 56.8051636,106.232242 62.1393208,111.891702 C65.7947077,115.768295 68.2677349,119.727174 69.9149154,123.064336 Z M83.5313071,5.40967846 L80.4047341,0 L77.2736166,5.4142244 C64.7991354,27.0120247 59.0458775,45.8413425 57.109947,61.6566965 C47.2485175,52.823919 36.03739,46.1913805 26.1168828,41.4135888 L20.9044129,38.9133173 L20.9407684,44.6957635 C21.0134794,57.6835377 22.6494769,73.4034269 28.2164129,88.1823048 C20.3090915,86.9367149 12.5699143,86.7185094 5.7805246,86.9912663 L0,87.2185637 L2.74029586,92.3100258 C18.8503271,122.245095 38.186909,132.096165 51.5748221,135.087399 C55.8375045,136.042048 59.7775319,136.38754 63.2358489,136.38754 C71.7339472,136.38754 77.3145165,134.314588 77.641716,134.191847 L80.3956452,133.146279 L80.4047341,133.150825 L80.4138229,133.141733 L80.4956228,133.150825 L80.5365228,133.032631 L82.8041971,131.014229 C83.3040852,130.564181 95.2059673,119.794829 101.195536,98.7470886 C111.088777,64.0160437 97.0510089,28.8258581 83.5313071,5.41877035" id="Shape"></path>
                </g>
                <g id="Staging" fill-rule="nonzero">
                    <path d="M6.93617175,18.6425344 C8.35860679,18.6425344 9.5825512,18.4236029 10.608005,17.9857399 C11.6334588,17.547877 12.4217103,16.9255154 12.9727594,16.1186551 C13.5238086,15.3117948 13.7993332,14.359132 13.7993332,13.2606669 L13.7993332,13.2481695 C13.7993332,11.8566675 13.3782423,10.7604154 12.5360606,9.95941322 C11.6938788,9.15841106 10.3430588,8.55912398 8.4836004,8.16155197 L6.52419905,7.74464811 C5.40315046,7.50316282 4.57806935,7.16827284 4.0489557,6.73997817 C3.51984205,6.3116835 3.25528523,5.76075857 3.25528523,5.08720337 L3.25528523,5.07470601 C3.25528523,4.5479947 3.4044858,4.08748029 3.70288695,3.6931628 C4.0012881,3.29884531 4.42481265,2.99119565 4.9734606,2.77021382 C5.52210855,2.549232 6.16622151,2.43874109 6.90579947,2.43874109 C7.61825005,2.43874109 8.24484054,2.54623784 8.78557094,2.76123135 C9.32630133,2.97622486 9.76348692,3.28237744 10.0971277,3.67968909 C10.4307685,4.07700074 10.6378905,4.55795352 10.7184939,5.12254744 L10.7412731,5.28833262 L13.4638753,5.28833262 L13.4514149,5.08486011 C13.3879446,4.07582912 13.0773426,3.18913548 12.5196089,2.4247792 C11.9618753,1.66042293 11.2059754,1.06520399 10.2519095,0.639122394 C9.29784354,0.213040798 8.19558294,0 6.94512768,0 C5.68065444,0 4.55801585,0.219484745 3.57721191,0.658454236 C2.59640797,1.09742373 1.82726896,1.70575837 1.26979487,2.48345818 C0.712320787,3.26115798 0.430209047,4.16558874 0.423459652,5.19675047 L0.423459652,5.20924782 C0.423459652,6.54086672 0.85493421,7.62009768 1.71788333,8.44694072 C2.58083244,9.27378375 3.89174022,9.87616263 5.65060665,10.2540773 L7.610008,10.6707859 C8.80348279,10.9289344 9.66140231,11.2717654 10.1837666,11.699279 C10.7061308,12.1267925 10.9673129,12.7027122 10.9673129,13.4270379 L10.9673129,13.4395352 C10.9673129,13.9980106 10.807534,14.4857654 10.4879761,14.9027994 C10.1684182,15.3198334 9.71617625,15.6409243 9.1312503,15.8660719 C8.54632435,16.0912195 7.85240215,16.2037933 7.04948371,16.2037933 C6.25253589,16.2037933 5.54631552,16.0942136 4.93082259,15.8750543 C4.31532967,15.655895 3.81963851,15.3455767 3.44374911,14.9440992 C3.06785972,14.5426218 2.83578436,14.0671366 2.74752304,13.5176437 L2.72260219,13.3542017 L0,13.3542017 L0.0124604219,13.5404904 C0.0856654008,14.5943036 0.41625597,15.5033883 1.00423213,16.2677446 C1.59220829,17.0321008 2.39210897,17.6189882 3.40393417,18.0284067 C4.41575937,18.4378251 5.5931719,18.6425344 6.93617175,18.6425344 Z" id="Path"></path>
                    <path d="M20.6209914,18.5972315 C20.8962888,18.5972315 21.1551022,18.5852874 21.3974314,18.5613992 C21.6397607,18.537511 21.8402956,18.5141761 21.9990362,18.4913945 L21.9990362,16.3971117 C21.9001316,16.4068752 21.7896751,16.4180057 21.6676668,16.4305031 C21.5456585,16.4430004 21.4128771,16.4492491 21.2693227,16.4492491 C20.6984796,16.4492491 20.2677189,16.326749 19.9770407,16.0817488 C19.6863624,15.8367487 19.5410232,15.3807255 19.5410232,14.7136793 L19.5410232,7.34219432 L21.9990362,7.34219432 L21.9990362,5.19421194 L19.5410232,5.19421194 L19.5410232,1.77189019 L16.7726679,1.77189019 L16.7726679,5.19421194 L14.8925071,5.19421194 L14.8925071,7.34219432 L16.7726679,7.34219432 L16.7726679,14.8681388 C16.7726679,16.17984 17.0900518,17.1292808 17.7248194,17.7164611 C18.359587,18.3036413 19.3249777,18.5972315 20.6209914,18.5972315 Z" id="Path"></path>
                    <path d="M27.8906711,18.5743847 C28.4735852,18.5743847 29.0212272,18.4799061 29.5335972,18.2909487 C30.0459671,18.1019913 30.5056399,17.8346652 30.9126154,17.4889702 C31.319591,17.1432752 31.6483968,16.7368184 31.899033,16.2695996 L31.9580254,16.2695996 L31.9580254,18.3381067 L34.6654414,18.3381067 L34.6654414,9.27908862 C34.6654414,8.40049873 34.4504991,7.63601228 34.0206146,6.98562925 C33.59073,6.33524622 32.9846149,5.83089345 32.2022691,5.47257093 C31.4199233,5.11424842 30.4942503,4.93508716 29.4252499,4.93508716 C28.3524854,4.93508716 27.4262608,5.11141698 26.6465758,5.46407664 C25.8668909,5.81673629 25.2566222,6.29495528 24.8157699,6.8987336 C24.3749176,7.50251192 24.1205498,8.18329215 24.0526664,8.9410743 L24.040206,9.08323168 L26.5858313,9.08323168 L26.6107521,8.96841226 C26.7231555,8.44013877 27.0146125,8.00969612 27.4851233,7.6770843 C27.955634,7.34447249 28.578071,7.17816658 29.3524343,7.17816658 C30.1878018,7.17816658 30.8309088,7.3849587 31.2817554,7.79854294 C31.732602,8.21212719 31.9580254,8.778804 31.9580254,9.49857336 L31.9580254,13.4176649 C31.9580254,13.9829097 31.8114531,14.4918188 31.5183087,14.9443922 C31.2251643,15.3969655 30.828248,15.7532377 30.3275597,16.0132087 C29.8268714,16.2731796 29.2610579,16.4031651 28.6301192,16.4031651 C27.9055976,16.4031651 27.3257986,16.2358828 26.8907222,15.9013183 C26.4556458,15.5667538 26.2381076,15.1115117 26.2381076,14.5355921 L26.2381076,14.5129406 C26.2381076,13.9535539 26.4563921,13.5050812 26.8929612,13.1675225 C27.3295302,12.8299639 27.9500528,12.6376869 28.7545288,12.5906916 L33.3436632,12.3044242 L33.3436632,10.4042408 L28.3957075,10.6973428 C26.8463319,10.7883391 25.6451992,11.1711356 24.7923093,11.8457323 C23.9394193,12.5203289 23.5129744,13.4323102 23.5129744,14.581676 L23.5129744,14.6043275 C23.5129744,15.3890571 23.6967007,16.0806097 24.0641534,16.6789856 C24.431606,17.2773614 24.944268,17.7428552 25.6021393,18.075467 C26.2600107,18.4080788 27.0228546,18.5743847 27.8906711,18.5743847 Z" id="Path"></path>
                    <path d="M43.0623756,22.9713047 C44.2946594,22.9713047 45.3606744,22.7631782 46.2604207,22.3469253 C47.160167,21.9306723 47.8544462,21.3481785 48.3432581,20.599444 C48.8320701,19.8507094 49.0764761,18.9746255 49.0764761,17.9711922 L49.0764761,5.19421194 L46.3692547,5.19421194 L46.3692547,7.42811362 L46.3079261,7.42811362 C46.0513193,6.92965153 45.7230975,6.49406674 45.3232607,6.12135925 C44.9234239,5.74865176 44.4644651,5.45776287 43.9463841,5.24869259 C43.4283031,5.0396223 42.8588553,4.93508716 42.2380408,4.93508716 C41.1308804,4.93508716 40.1646136,5.20888982 39.3392404,5.75649515 C38.5138673,6.30410048 37.8710523,7.07913157 37.4107954,8.08158844 C36.9505386,9.08404531 36.7204102,10.2746459 36.7204102,11.6533902 L36.7204102,11.6658876 C36.7204102,13.0278386 36.9463851,14.2089035 37.398335,15.2090822 C37.8502849,16.2092609 38.4868697,16.9825345 39.3080894,17.5289031 C40.129309,18.0752717 41.0885668,18.3484561 42.1858627,18.3484561 C42.8165418,18.3484561 43.397152,18.2520897 43.9276935,18.0593571 C44.4582349,17.8666245 44.9258576,17.5972155 45.3305617,17.25113 C45.7352659,16.9050444 46.0618327,16.4926644 46.3102624,16.0139897 L46.3692547,16.0139897 L46.3692547,17.8204429 C46.3692547,18.7323591 46.0821134,19.456815 45.5078307,19.9938106 C44.933548,20.5308062 44.1139183,20.7993039 43.0489417,20.7993039 C42.2125358,20.7993039 41.5194573,20.6681143 40.9697061,20.405735 C40.4199549,20.1433557 40.0526645,19.8040721 39.8678349,19.3878843 L39.8224712,19.2845858 L37.1417282,19.2845858 L37.1643127,19.397062 C37.2964451,20.0660609 37.6146077,20.6712386 38.1188005,21.2125953 C38.6229933,21.7539519 39.2927085,22.1824093 40.1279462,22.4979675 C40.9631838,22.8135256 41.941327,22.9713047 43.0623756,22.9713047 Z M42.9471167,16.1489221 C42.242324,16.1489221 41.6288105,15.9685892 41.106576,15.6079234 C40.5843416,15.2472577 40.1830446,14.7344106 39.9026851,14.0693822 C39.6223256,13.4043539 39.4821459,12.6131478 39.4821459,11.6957641 L39.4821459,11.6832667 C39.4821459,10.7764276 39.622715,9.99296731 39.9038533,9.33288581 C40.1849916,8.67280432 40.5862885,8.16278868 41.1077442,7.80283891 C41.6291999,7.44288913 42.242324,7.26291425 42.9471167,7.26291425 C43.6263394,7.26291425 44.223304,7.44458148 44.7380103,7.80791596 C45.2527165,8.17125043 45.6540135,8.68334896 45.9419012,9.34421154 C46.2297889,10.0050741 46.3737327,10.7855403 46.3737327,11.68561 L46.3737327,11.6981073 C46.3737327,12.5966149 46.2301782,13.3796846 45.9430694,14.0473166 C45.6559605,14.7149486 45.2563833,15.2321242 44.7443378,15.5988433 C44.2322924,15.9655625 43.6332186,16.1489221 42.9471167,16.1489221 Z" id="Shape"></path>
                    <path d="M51.871684,18.3381067 L54.5791,18.3381067 L54.5791,5.19421194 L51.871684,5.19421194 L51.871684,18.3381067 Z M53.225392,3.17120308 C53.6685157,3.17120308 54.0414523,3.01801288 54.3442016,2.71163249 C54.6469509,2.40525209 54.7983256,2.03863055 54.7983256,1.61176787 C54.7983256,1.17657362 54.6469509,0.807901737 54.3442016,0.505752215 C54.0414523,0.203602694 53.6685157,0.0525279328 53.225392,0.0525279328 C52.7891474,0.0525279328 52.4179307,0.203602694 52.1117418,0.505752215 C51.8055529,0.807901737 51.6524584,1.17657362 51.6524584,1.61176787 C51.6524584,2.03863055 51.8055529,2.40525209 52.1117418,2.71163249 C52.4179307,3.01801288 52.7891474,3.17120308 53.225392,3.17120308 Z" id="Shape"></path>
                    <path d="M57.380024,18.3381067 L60.0872454,18.3381067 L60.0872454,10.6713717 C60.0872454,9.98636064 60.2153541,9.3887659 60.4715715,8.87858754 C60.7277889,8.36840918 61.0894332,7.97158571 61.5565043,7.68811712 C62.0235754,7.40464854 62.5718016,7.26291425 63.2011827,7.26291425 C64.1325992,7.26291425 64.8298312,7.52923152 65.2928787,8.06186606 C65.7559261,8.5945006 65.9874498,9.35622071 65.9874498,10.3470264 L65.9874498,18.3381067 L68.6946712,18.3381067 L68.6946712,9.82448087 C68.6946712,8.3094373 68.2991177,7.11577745 67.5080107,6.24350134 C66.7169037,5.37122522 65.6027343,4.93508716 64.1655025,4.93508716 C63.1746394,4.93508716 62.3438797,5.14135856 61.6732234,5.55390136 C61.0025672,5.96644415 60.4935719,6.50662918 60.1462377,7.17445643 L60.0872454,7.17445643 L60.0872454,5.19421194 L57.380024,5.19421194 L57.380024,18.3381067 Z" id="Path"></path>
                    <path d="M77.0802644,22.9713047 C78.3125482,22.9713047 79.3785633,22.7631782 80.2783096,22.3469253 C81.1780559,21.9306723 81.872335,21.3481785 82.361147,20.599444 C82.8499589,19.8507094 83.0943649,18.9746255 83.0943649,17.9711922 L83.0943649,5.19421194 L80.3871436,5.19421194 L80.3871436,7.42811362 L80.3258149,7.42811362 C80.0692081,6.92965153 79.7409863,6.49406674 79.3411496,6.12135925 C78.9413128,5.74865176 78.4823539,5.45776287 77.9642729,5.24869259 C77.446192,5.0396223 76.8767442,4.93508716 76.2559296,4.93508716 C75.1487692,4.93508716 74.1825024,5.20888982 73.3571293,5.75649515 C72.5317561,6.30410048 71.8889411,7.07913157 71.4286843,8.08158844 C70.9684274,9.08404531 70.738299,10.2746459 70.738299,11.6533902 L70.738299,11.6658876 C70.738299,13.0278386 70.964274,14.2089035 71.4162239,15.2090822 C71.8681737,16.2092609 72.5047585,16.9825345 73.3259782,17.5289031 C74.1471979,18.0752717 75.1064557,18.3484561 76.2037516,18.3484561 C76.8344307,18.3484561 77.4150409,18.2520897 77.9455823,18.0593571 C78.4761237,17.8666245 78.9437465,17.5972155 79.3484506,17.25113 C79.7531547,16.9050444 80.0797216,16.4926644 80.3281513,16.0139897 L80.3871436,16.0139897 L80.3871436,17.8204429 C80.3871436,18.7323591 80.1000022,19.456815 79.5257196,19.9938106 C78.9514369,20.5308062 78.1318072,20.7993039 77.0668305,20.7993039 C76.2304247,20.7993039 75.5373462,20.6681143 74.987595,20.405735 C74.4378437,20.1433557 74.0705533,19.8040721 73.8857237,19.3878843 L73.84036,19.2845858 L71.159617,19.2845858 L71.1822016,19.397062 C71.314334,20.0660609 71.6324965,20.6712386 72.1366894,21.2125953 C72.6408822,21.7539519 73.3105974,22.1824093 74.145835,22.4979675 C74.9810727,22.8135256 75.9592158,22.9713047 77.0802644,22.9713047 Z M76.9650055,16.1489221 C76.2602129,16.1489221 75.6466994,15.9685892 75.1244649,15.6079234 C74.6022304,15.2472577 74.2009335,14.7344106 73.920574,14.0693822 C73.6402145,13.4043539 73.5000347,12.6131478 73.5000347,11.6957641 L73.5000347,11.6832667 C73.5000347,10.7764276 73.6406039,9.99296731 73.9217421,9.33288581 C74.2028804,8.67280432 74.6041774,8.16278868 75.1256331,7.80283891 C75.6470887,7.44288913 76.2602129,7.26291425 76.9650055,7.26291425 C77.6442283,7.26291425 78.2411928,7.44458148 78.7558991,7.80791596 C79.2706054,8.17125043 79.6719024,8.68334896 79.95979,9.34421154 C80.2476777,10.0050741 80.3916215,10.7855403 80.3916215,11.68561 L80.3916215,11.6981073 C80.3916215,12.5966149 80.2480671,13.3796846 79.9609582,14.0473166 C79.6738493,14.7149486 79.2742721,15.2321242 78.7622267,15.5988433 C78.2501812,15.9655625 77.6511075,16.1489221 76.9650055,16.1489221 Z" id="Shape"></path>
                </g>
            </g>
        </g>
    </g>
</svg>