<?xml version="1.0" encoding="UTF-8"?>
<svg width="96px" height="96px" viewBox="0 0 96 96" version="1.1" xmlns="http://www.w3.org/2000/svg" xmlns:xlink="http://www.w3.org/1999/xlink">
    <title>notification_icons</title>
    <g id="notification_icons" stroke="none" stroke-width="1" fill="none" fill-rule="evenodd">
        <g id="app-icon" transform="translate(0.000000, -0.003277)">
            <rect id="Rectangle" fill="#45B139" x="0" y="1.7772242e-15" width="96" height="96"></rect>
            <g id="soil-site-icon" transform="translate(19.687500, 12.190777)" fill="#FFFFFF">
                <path d="M50.7485148,51.5472184 C49.5218482,56.0031506 47.4964221,60.2007291 44.7700089,63.9375 C44.9987135,60.1807997 44.6066484,56.4119473 43.609418,52.7818718 C41.8636553,46.3801453 38.4720967,40.9894736 34.3125,36.4859052 C34.9098629,27.5006422 37.911307,17.8445832 43.2558767,7.875 C51.7359923,23.6970347 54.327816,38.7389046 50.7485148,51.5472184 L50.7485148,51.5472184 Z M28.4992326,68.5439352 C20.2029332,66.612128 12.7280014,60.373899 6.75,50.4375 C10.5117667,50.4715621 14.0159447,50.8438121 17.2358032,51.534786 C19.4544679,56.0139512 22.4677694,60.1987225 26.5430167,63.69252 C29.1565697,65.9398883 32.0913796,67.7826475 35.25,69.1594859 C32.9822476,69.267998 30.7101211,69.0609491 28.4992326,68.5439352 L28.4992326,68.5439352 Z M15,26.8125 C21.080582,30.0165521 26.1595987,33.6821635 30.1634054,37.7287446 C29.9596556,43.6777315 30.7648356,48.6816208 31.9063256,52.6671491 C32.0167924,53.0578871 32.1321688,53.4364146 32.25,53.8125 C28.3861178,50.9308068 24.0067241,49.0796852 19.5684147,47.9367764 C16.9098477,41.9877894 15.3559485,34.8958936 15,26.8125 L15,26.8125 Z M40.859402,62.625 C38.5138362,59.184101 36.7474438,55.3941393 35.6278402,51.401144 C34.7996741,48.4538812 34.2960128,45.4280247 34.125,42.375 C36.7383132,45.8437949 38.6187142,49.54546 39.7242518,53.4290549 C40.7236775,56.9487901 40.9408367,60.1192202 40.859402,62.625 L40.859402,62.625 Z M37.5,65.8125 C34.3424238,64.5331739 31.4196385,62.7274979 28.8538809,60.4707696 C26.3721155,58.2734481 24.2304341,55.7133291 22.5,52.875 C26.8230595,54.4811862 30.4683718,56.8110119 33.3294336,59.837585 C35.2900597,61.9107143 36.616508,64.0278486 37.5,65.8125 Z M44.8033728,2.89299463 L43.1263845,0 L41.4469588,2.89542572 C34.7560683,14.4455245 31.670215,24.5150907 30.6318473,32.9728456 C25.3425095,28.2492417 19.3292392,24.7022844 14.0082141,22.147211 L11.2124212,20.8101127 L11.2319211,23.9024565 C11.2709208,30.8480747 12.1484147,39.2547768 15.1343312,47.1582436 C10.893111,46.4921255 6.74207764,46.3754333 3.10047822,46.5212986 L0,46.642853 L1.46980217,49.3656715 C10.110679,65.3743855 20.4821686,70.642553 27.6629932,72.2422089 C29.9493521,72.7527373 32.0626498,72.9375 33.9175742,72.9375 C38.4756672,72.9375 41.4688962,71.8289239 41.644395,71.7632845 L43.1215096,71.2041343 L43.1263845,71.2065654 L43.1312595,71.2017032 L43.1751342,71.2065654 L43.1970715,71.1433571 L44.4133755,70.0639541 C44.6814986,69.8232764 51.0652663,64.0640291 54.2778687,52.808092 C59.5842689,34.2345802 52.0548843,15.4155285 44.8033728,2.89785681" id="Shape"></path>
            </g>
            <g id="Staging" transform="translate(6.948985, 9.574066)" fill="#FFFFFF" fill-rule="nonzero">
                <path d="M3.71917963,10.6012545 C4.46757555,10.6012545 5.11768794,10.4790049 5.6695168,10.2345057 C6.22134566,9.99000645 6.64775729,9.64393425 6.94875169,9.19628906 C7.24974608,8.74864388 7.40024328,8.21752644 7.40024328,7.60293674 L7.40024328,7.5962534 C7.40024328,6.88071728 7.17823076,6.30948234 6.73420572,5.88254857 C6.29018068,5.45561481 5.56183481,5.13361311 4.54916811,4.91654348 L3.49821138,4.6870122 C2.87505865,4.55418062 2.42703056,4.36838698 2.15412712,4.12963128 C1.88122368,3.89087558 1.74477196,3.59296179 1.74477196,3.23588991 L1.74477196,3.22920656 C1.74477196,2.92574072 1.83026314,2.66766596 2.0012455,2.45498228 C2.17222786,2.2422986 2.40485716,2.07867837 2.6991334,1.96412158 C2.99340963,1.84956479 3.32796001,1.7922864 3.70278454,1.7922864 C4.09222889,1.78866625 4.43267941,1.8461535 4.72413611,1.96474814 C5.01559281,2.08334279 5.24897051,2.24433494 5.4242692,2.44772458 C5.59956789,2.65111423 5.70824194,2.88560581 5.75029135,3.15119934 L5.76365805,3.23557663 L7.22282124,3.23557663 L7.21613789,3.14566469 C7.18084145,2.64322996 7.01544595,2.1918602 6.71995139,1.7915554 C6.42445683,1.39125061 6.02166319,1.07393074 5.51157045,0.839595795 C5.00147772,0.605260849 4.40561533,0.488093376 3.72398329,0.488093376 C3.04214239,0.488093376 2.43837833,0.60679245 1.91269112,0.844190598 C1.3870039,1.08158875 0.975351334,1.41177058 0.677733421,1.83473611 C0.380115509,2.25770164 0.229496479,2.74797058 0.225876331,3.30554295 L0.225876331,3.3122263 C0.225876331,4.02400303 0.448376179,4.60745597 0.893375874,5.06258512 C1.33837557,5.51771426 2.05043077,5.8505764 3.02954149,6.06117153 L4.08049822,6.2852726 C4.72070742,6.42332554 5.18090129,6.61425352 5.46107984,6.85805655 C5.74125838,7.10185957 5.88134766,7.40873671 5.88134766,7.77868795 L5.88134766,7.7853713 C5.88134766,8.08124876 5.79108763,8.34311771 5.61056757,8.57097816 C5.43004751,8.79883862 5.18201518,8.97681761 4.86647058,9.10491514 C4.55092597,9.23301268 4.18871975,9.29706144 3.77985191,9.29706144 C3.34919357,9.29706144 2.9657712,9.23734641 2.62958479,9.11791635 C2.29339838,8.99848628 2.02562928,8.83141994 1.82627749,8.61671734 C1.62692571,8.40201473 1.51249075,8.14895248 1.48297262,7.85753059 L1.47628927,7.7876687 L0,7.7876687 L0.00668334961,7.87225485 C0.0524225235,8.41151762 0.231167316,8.88603544 0.542917728,9.29580832 C0.85466814,9.70558119 1.2800703,10.0255988 1.81912422,10.255861 C2.35817814,10.4861233 2.99152994,10.6012545 3.71917963,10.6012545 Z" id="Path"></path>
                <path d="M11.8208434,10.4103613 C11.9636304,10.4103613 12.1015441,10.4030688 12.2345845,10.3884838 C12.3676249,10.3738987 12.4914758,10.3568597 12.606137,10.3373666 L12.606137,9.17916298 C12.5041463,9.18807411 12.4147565,9.19496632 12.3379676,9.19983959 C12.2611787,9.20471287 12.1674377,9.20714951 12.0567447,9.20714951 C11.6988375,9.20714951 11.4415285,9.1204052 11.2848179,8.94691658 C11.1281072,8.77342796 11.0497519,8.49220514 11.0497519,8.10324812 L11.0497519,4.25436974 L12.606137,4.25436974 L12.606137,3.10566902 L11.0497519,3.10566902 L11.0497519,1.28027916 L9.56489962,1.28027916 L9.56489962,3.10566902 L8.42998331,3.10566902 L8.42998331,4.25436974 L9.56489962,4.25436974 L9.56489962,8.45495939 C9.56489962,9.15093279 9.74190395,9.65082645 10.0959126,9.95464039 C10.4499213,10.2584543 11.0248982,10.4103613 11.8208434,10.4103613 Z" id="Path"></path>
                <path d="M16.1674584,10.4900393 C16.4911135,10.4900393 16.7890447,10.4451878 17.0612519,10.3554847 C17.3334592,10.2657816 17.5761831,10.1344643 17.7894238,9.96153259 C18.0026644,9.78860092 18.1797035,9.58047724 18.3205412,9.33716154 L18.4323829,9.33716154 L18.4323829,10.3667107 L19.8746288,10.3667107 L19.8746288,5.40129519 C19.8746288,4.893291 19.7641099,4.45749831 19.5430721,4.09391713 C19.3220342,3.73033595 18.9991101,3.45174122 18.5742996,3.25813293 C18.1494892,3.06452465 17.6311467,2.96772051 17.0192722,2.96772051 C16.4693578,2.96772051 15.9822565,3.05047917 15.5579682,3.2159965 C15.1336799,3.38151383 14.7913671,3.6124723 14.5310298,3.90887189 C14.2706924,4.20527148 14.1113885,4.55264902 14.0531181,4.95100451 L14.0464347,4.99966764 L15.4446123,4.99966764 L15.4525488,4.97711134 C15.540407,4.71931505 15.7122422,4.51989365 15.9680544,4.37884712 C16.2238665,4.2378006 16.5531433,4.16727734 16.9558848,4.16727734 C17.4443958,4.16727734 17.8126066,4.27299261 18.0605171,4.48442316 C18.3084276,4.69585371 18.4323829,5.00147772 18.4323829,5.40129519 L18.4323829,7.68365908 C18.4323829,7.99568796 18.3515387,8.27555323 18.1898504,8.52325487 C18.0281621,8.77095652 17.8064628,8.96694922 17.5247527,9.111233 C17.2430425,9.25551677 16.9214585,9.32765865 16.5600007,9.32765865 C16.170626,9.32765865 15.849042,9.23405695 15.5952488,9.04685354 C15.3414555,8.85965014 15.2145589,8.59931278 15.2145589,8.26584148 L15.2145589,8.25247478 C15.2145589,7.927845 15.3320571,7.67506123 15.5670534,7.49412346 C15.8020497,7.31318569 16.1694773,7.20837545 16.6693361,7.17969275 L19.1535581,7.02044106 L19.1535581,5.99590445 L16.4738482,6.15755796 C15.6075886,6.20817041 14.9393755,6.41770387 14.4692088,6.78615832 C13.9990421,7.15461278 13.7639588,7.66329575 13.7639588,8.31220722 L13.7639588,8.32557392 C13.7639588,8.76549149 13.8685427,9.1479044 14.0777107,9.47281265 C14.2868787,9.79772091 14.5728355,10.0484858 14.9355813,10.2251072 C15.298327,10.4017286 15.7089527,10.4900393 16.1674584,10.4900393 Z" id="Path"></path>
                <path d="M24.8703103,12.9235096 C25.5579991,12.9235096 26.1538789,12.8130081 26.6579497,12.592005 C27.1620204,12.371002 27.5509079,12.0577374 27.8246119,11.6522112 C28.098316,11.246685 28.235168,10.7692432 28.235168,10.2198858 L28.235168,3.10566902 L26.7831059,3.10566902 L26.7831059,4.30021334 L26.6992507,4.30021334 C26.5579257,4.02682257 26.3782063,3.79210472 26.1600924,3.5960598 C25.9419785,3.40001488 25.6907611,3.24871707 25.4064403,3.14216638 C25.1221194,3.03561568 24.8106475,2.98234034 24.4720244,2.98234034 C23.8437896,2.98234034 23.3030474,3.13313341 22.849798,3.43471956 C22.3965485,3.73630571 22.0470998,4.15232682 21.8014519,4.68278289 C21.555804,5.21323895 21.4329801,5.82387781 21.4329801,6.51469946 L21.4329801,6.52806616 C21.4329801,7.20983744 21.554899,7.81280088 21.7987368,8.3369565 C22.0425746,8.86111212 22.3897955,9.27133751 22.8403995,9.56763268 C23.2910035,9.86392784 23.8251319,10.0120754 24.4427848,10.0120754 C24.7766042,10.0120754 25.0856917,9.96518755 25.3700473,9.8714118 C25.654403,9.77763605 25.9079525,9.63862586 26.1306961,9.45438123 C26.3534396,9.27013659 26.5372839,9.04737568 26.682229,8.78609848 L26.7940707,8.78609848 L26.7940707,10.2112184 C26.7940707,10.7038369 26.6261864,11.0854492 26.2904177,11.3560553 C25.954649,11.6266613 25.4866056,11.7619643 24.8862877,11.7619643 C24.3996563,11.7619643 24.0116391,11.6817293 23.7222362,11.5212593 C23.4328332,11.3607893 23.2585788,11.155694 23.1994729,10.9059734 L23.1915364,10.8918757 L21.7225571,10.8918757 L21.7129498,10.9083753 C21.7728214,11.3086801 21.9343357,11.6608438 22.1974926,11.9648666 C22.4606495,12.2688894 22.8179128,12.504669 23.2692826,12.6722052 C23.7206523,12.8397415 24.2543283,12.9235096 24.8703103,12.9235096 Z M24.846292,8.81126547 C24.4358926,8.81126547 24.0875056,8.71440911 23.801131,8.5206964 C23.5147564,8.32698369 23.2961726,8.0584836 23.1453795,7.71519613 C22.9945865,7.37190866 22.9191899,6.97536325 22.9191899,6.5255599 L22.9191899,6.5121932 C22.9191899,6.06238985 22.9945865,5.66443467 23.1453795,5.31832767 C23.2961726,4.97222066 23.5147564,4.70161462 23.801131,4.50650954 C24.0875056,4.31140447 24.4358926,4.21385193 24.846292,4.21385193 C25.2575269,4.21385193 25.6099691,4.31140447 25.9036188,4.50650954 C26.1972685,4.70161462 26.4231274,4.97242951 26.5811956,5.31895423 C26.7392638,5.66547894 26.8182979,6.06364298 26.8182979,6.51344633 L26.8182979,6.52681303 C26.8182979,6.97661638 26.7392638,7.37295294 26.5811956,7.7158227 C26.4231274,8.05869246 26.1972685,8.32698369 25.9036188,8.5206964 C25.6099691,8.71440911 25.2575269,8.81126547 24.846292,8.81126547 Z" id="Shape"></path>
                <path d="M30.2237729,10.3667107 L31.675835,10.3667107 L31.675835,3.10566902 L30.2237729,3.10566902 L30.2237729,10.3667107 Z M30.9551819,1.81108332 C31.2074088,1.81108332 31.4223202,1.72219825 31.5999163,1.54442811 C31.7775124,1.36665797 31.8663105,1.15392208 31.8663105,0.906220436 C31.8663105,0.653993607 31.7775124,0.43990016 31.5999163,0.263940096 C31.4223202,0.087980032 31.2074088,0 30.9551819,0 C30.7074803,0 30.4937175,0.087980032 30.3138937,0.263940096 C30.1340698,0.43990016 30.0441579,0.653993607 30.0441579,0.906220436 C30.0441579,1.15392208 30.1340698,1.36665797 30.3138937,1.54442811 C30.4937175,1.72219825 30.7074803,1.81108332 30.9551819,1.81108332 Z" id="Shape"></path>
                <path d="M33.6643861,10.3667107 L35.1164482,10.3667107 L35.1164482,6.10638857 C35.1164482,5.71583033 35.1865711,5.37967873 35.3268171,5.09793377 C35.467063,4.81618881 35.6656838,4.59819674 35.9226794,4.44395757 C36.1796751,4.28971839 36.4846552,4.2125988 36.8376196,4.2125988 C37.3706863,4.2125988 37.7640293,4.36107707 38.0176485,4.65803361 C38.2712677,4.95499015 38.3980773,5.40501976 38.3980773,6.00812244 L38.3980773,10.3667107 L39.8501394,10.3667107 L39.8501394,5.66737604 C39.8501394,4.80292654 39.6339574,4.13687158 39.2015934,3.66921115 C38.7692294,3.20155072 38.1459549,2.96772051 37.3317697,2.96772051 C36.8031585,2.96772051 36.3648596,3.07721257 36.0168729,3.2961967 C35.6688862,3.51518083 35.4060252,3.81911659 35.2282899,4.208004 L35.1164482,4.208004 L35.1164482,3.10566902 L33.6643861,3.10566902 L33.6643861,10.3667107 Z" id="Path"></path>
                <path d="M44.8190483,12.9235096 C45.5067371,12.9235096 46.1026169,12.8130081 46.6066877,12.592005 C47.1107584,12.371002 47.4996458,12.0577374 47.7733499,11.6522112 C48.0470539,11.246685 48.183906,10.7692432 48.183906,10.2198858 L48.183906,3.10566902 L46.7318438,3.10566902 L46.7318438,4.30021334 L46.6479887,4.30021334 C46.5066637,4.02682257 46.3269442,3.79210472 46.1088303,3.5960598 C45.8907164,3.40001488 45.6394991,3.24871707 45.3551783,3.14216638 C45.0708574,3.03561568 44.7593855,2.98234034 44.4207624,2.98234034 C43.7925276,2.98234034 43.2517854,3.13313341 42.798536,3.43471956 C42.3452865,3.73630571 41.9958378,4.15232682 41.7501899,4.68278289 C41.504542,5.21323895 41.3817181,5.82387781 41.3817181,6.51469946 L41.3817181,6.52806616 C41.3817181,7.20983744 41.503637,7.81280088 41.7474748,8.3369565 C41.9913126,8.86111212 42.3385335,9.27133751 42.7891375,9.56763268 C43.2397415,9.86392784 43.7738699,10.0120754 44.3915228,10.0120754 C44.7253422,10.0120754 45.0344297,9.96518755 45.3187853,9.8714118 C45.603141,9.77763605 45.8566905,9.63862586 46.0794341,9.45438123 C46.3021776,9.27013659 46.4860219,9.04737568 46.630967,8.78609848 L46.7428087,8.78609848 L46.7428087,10.2112184 C46.7428087,10.7038369 46.5749244,11.0854492 46.2391557,11.3560553 C45.903387,11.6266613 45.4353436,11.7619643 44.8350257,11.7619643 C44.3483943,11.7619643 43.9603771,11.6817293 43.6709742,11.5212593 C43.3815712,11.3607893 43.2073168,11.155694 43.1482109,10.9059734 L43.1402744,10.8918757 L41.6712951,10.8918757 L41.6616877,10.9083753 C41.7215594,11.3086801 41.8830737,11.6608438 42.1462306,11.9648666 C42.4093875,12.2688894 42.7666508,12.504669 43.2180206,12.6722052 C43.6693903,12.8397415 44.2030662,12.9235096 44.8190483,12.9235096 Z M44.79503,8.81126547 C44.3846306,8.81126547 44.0362436,8.71440911 43.749869,8.5206964 C43.4634944,8.32698369 43.2449106,8.0584836 43.0941175,7.71519613 C42.9433245,7.37190866 42.8679279,6.97536325 42.8679279,6.5255599 L42.8679279,6.5121932 C42.8679279,6.06238985 42.9433245,5.66443467 43.0941175,5.31832767 C43.2449106,4.97222066 43.4634944,4.70161462 43.749869,4.50650954 C44.0362436,4.31140447 44.3846306,4.21385193 44.79503,4.21385193 C45.2062649,4.21385193 45.5587071,4.31140447 45.8523568,4.50650954 C46.1460065,4.70161462 46.3718654,4.97242951 46.5299336,5.31895423 C46.6880018,5.66547894 46.7670359,6.06364298 46.7670359,6.51344633 L46.7670359,6.52681303 C46.7670359,6.97661638 46.6880018,7.37295294 46.5299336,7.7158227 C46.3718654,8.05869246 46.1460065,8.32698369 45.8523568,8.5206964 C45.5587071,8.71440911 45.2062649,8.81126547 44.79503,8.81126547 Z" id="Shape"></path>
            </g>
        </g>
    </g>
</svg>