<?xml version="1.0" encoding="UTF-8"?>
<svg width="512px" height="512px" viewBox="0 0 512 512" version="1.1" xmlns="http://www.w3.org/2000/svg" xmlns:xlink="http://www.w3.org/1999/xlink">
    <title>Icon-transparent</title>
    <g id="Icon-transparent" stroke="none" stroke-width="1" fill="none" fill-rule="evenodd">
        <rect id="Background" x="0" y="0" width="512" height="512"></rect>
        <g id="Group" transform="translate(-0.258065, 0.000000)">
            <rect id="Rectangle" fill="#45B139" x="0" y="-0.0174757282" width="512" height="512"></rect>
            <g id="soil-site-icon" fill="#FFFFFF">
                <path d="M362.801702,331.537364 C356.67705,353.903353 346.564251,374.972568 332.951477,393.728818 C334.093382,374.872535 332.135831,355.955256 327.156735,337.734551 C318.440275,305.601893 301.506481,278.544097 280.737931,255.939004 C283.720519,210.838611 298.7065,162.371242 325.39153,112.330178 C367.732103,191.746884 380.672881,267.24765 362.801702,331.537364 L362.801702,331.537364 Z M251.31379,416.333911 C209.752343,406.647757 172.305649,375.369042 142.358034,325.547563 C161.203119,325.718352 178.757778,327.584828 194.888099,331.049397 C206.002804,353.508099 221.09835,374.490701 241.513859,392.008733 C254.60681,403.277122 269.309142,412.516786 285.132683,419.420305 C273.772067,419.964389 262.389538,418.926238 251.31379,416.333911 L251.31379,416.333911 Z M185.842945,208.825745 C215.997516,224.831078 241.185165,243.142057 261.040678,263.35611 C260.03025,293.073328 264.023266,318.069462 269.684096,337.978535 C270.231918,339.930405 270.804088,341.821279 271.388431,343.699953 C252.226827,329.304913 230.508719,320.057929 208.498438,314.34871 C195.314183,284.631491 187.60815,249.205053 185.842945,208.825745 L185.842945,208.825745 Z M313.789873,387.983001 C302.21865,370.678455 293.504624,351.618445 287.981358,331.537364 C283.895822,316.715352 281.411144,301.498087 280.567497,286.14419 C293.459581,303.589027 302.736037,322.204986 308.189912,341.735884 C313.120312,359.436904 314.191609,375.381241 313.789873,387.983001 L313.789873,387.983001 Z M296.746514,403.207586 C280.865756,396.823752 266.165859,387.813432 253.261602,376.552363 C240.779777,365.587734 230.008374,352.812746 221.305305,338.64949 C243.047761,346.664356 261.381545,358.290181 275.771009,373.392774 C285.63181,383.737684 292.303067,394.30218 296.746514,403.207586 Z M333.767124,87.5170322 L325.39153,73 L317.003763,87.5292314 C283.586607,145.487567 268.174541,196.016599 262.98849,238.457569 C236.571285,214.75455 206.538452,196.955936 179.962987,184.134591 L165.999607,177.425038 L166.096997,192.942404 C166.291778,227.79548 170.674356,269.980268 185.587295,309.639824 C164.404835,306.297247 143.672807,305.711686 125.485109,306.443637 L110,307.053596 L117.340818,320.716686 C160.497037,401.04833 212.296673,427.483968 248.160769,435.511033 C259.579819,438.072862 270.134527,439 279.39881,439 C302.163867,439 317.113328,433.437171 317.989843,433.107793 L325.367183,430.30198 L325.39153,430.314179 L325.415878,430.289781 L325.635007,430.314179 L325.744571,429.997 L331.819311,424.580561 C333.158432,423.372842 365.041687,394.472968 381.086791,337.990734 C407.589214,244.788947 369.984261,150.355043 333.767124,87.5414306" id="Shape"></path>
            </g>
        </g>
    </g>
</svg>