<?xml version="1.0" encoding="UTF-8"?>
<svg width="512px" height="512px" viewBox="0 0 512 512" version="1.1" xmlns="http://www.w3.org/2000/svg" xmlns:xlink="http://www.w3.org/1999/xlink">
    <title>logo-foregorund</title>
    <g id="logo-foregorund" stroke="none" stroke-width="1" fill="none" fill-rule="evenodd">
        <g id="icon" transform="translate(-0.258065, -0.017476)" fill="#FFFFFF">
            <g id="Group" transform="translate(194.000000, 186.000000)">
                <g id="soil-site-icon" transform="translate(20.477201, 3.612460)">
                    <path d="M94.6154164,96.3893516 C92.3284221,104.721604 88.5522223,112.570754 83.4691036,119.558229 C83.8955,112.533488 83.1645346,105.486022 81.3053006,98.6980589 C78.0505045,86.7273206 71.7272903,76.6471772 63.9721476,68.2258491 C65.0858697,51.4240952 70.6817552,33.3680042 80.6461589,14.725647 C96.4564673,44.3116405 101.288658,72.4387855 94.6154164,96.3893516 L94.6154164,96.3893516 Z M53.133905,128.171911 C37.666303,124.559579 23.730057,112.894568 12.5846848,94.3142631 C19.5981141,94.3779566 26.1312958,95.0740356 32.1343926,96.3661039 C36.2708661,104.7418 41.8888587,112.567002 49.4867405,119.100136 C54.3594429,123.302542 59.8310958,126.748361 65.7200205,129.322943 C61.4920281,129.525853 57.2558805,129.138687 53.133905,128.171911 L53.133905,128.171911 Z M27.9659662,50.137322 C39.3025896,56.1286541 48.7718968,62.9830668 56.2365851,70.5498636 C55.8567144,81.6740137 57.3578902,91.0309035 59.4860815,98.4835361 C59.6920355,99.2141864 59.907143,99.9220038 60.1268273,100.625255 C52.9230141,95.2367091 44.7580822,91.7752535 36.4833082,89.6381015 C31.526682,78.5139513 28.6295957,65.2526492 27.9659662,50.137322 L27.9659662,50.137322 Z M76.1781769,117.103955 C71.8051093,110.669737 68.5118513,103.582799 66.4244649,96.1162036 C64.8804338,90.6050478 63.941409,84.9469278 63.622573,79.2380054 C68.4948283,85.7243864 72.0006437,92.6462166 74.0618055,99.9082417 C75.9251325,106.489877 76.3300036,112.418339 76.1781769,117.103955 L76.1781769,117.103955 Z M69.9149154,123.064336 C64.0279374,120.672094 58.5787032,117.295618 53.7951105,113.075709 C49.1681127,108.966886 45.1751666,104.17966 41.9489493,98.8722015 C50.0088517,101.875647 56.8051636,106.232242 62.1393208,111.891702 C65.7947077,115.768295 68.2677349,119.727174 69.9149154,123.064336 Z M83.5313071,5.40967846 L80.4047341,0 L77.2736166,5.4142244 C64.7991354,27.0120247 59.0458775,45.8413425 57.109947,61.6566965 C47.2485175,52.823919 36.03739,46.1913805 26.1168828,41.4135888 L20.9044129,38.9133173 L20.9407684,44.6957635 C21.0134794,57.6835377 22.6494769,73.4034269 28.2164129,88.1823048 C20.3090915,86.9367149 12.5699143,86.7185094 5.7805246,86.9912663 L0,87.2185637 L2.74029586,92.3100258 C18.8503271,122.245095 38.186909,132.096165 51.5748221,135.087399 C55.8375045,136.042048 59.7775319,136.38754 63.2358489,136.38754 C71.7339472,136.38754 77.3145165,134.314588 77.641716,134.191847 L80.3956452,133.146279 L80.4047341,133.150825 L80.4138229,133.141733 L80.4956228,133.150825 L80.5365228,133.032631 L82.8041971,131.014229 C83.3040852,130.564181 95.2059673,119.794829 101.195536,98.7470886 C111.088777,64.0160437 97.0510089,28.8258581 83.5313071,5.41877035" id="Shape"></path>
                </g>
            </g>
        </g>
    </g>
</svg>