<?xml version="1.0" encoding="UTF-8"?>
<svg width="512px" height="512px" viewBox="0 0 512 512" version="1.1" xmlns="http://www.w3.org/2000/svg" xmlns:xlink="http://www.w3.org/1999/xlink">
    <title>Icon-transparent</title>
    <g id="Icon-transparent" stroke="none" stroke-width="1" fill="none" fill-rule="evenodd">
        <rect id="Background" x="0" y="0" width="512" height="512"></rect>
        <g id="icon" transform="translate(-0.258065, -0.017476)">
            <rect id="Rectangle" fill="#45B139" x="0" y="3.46944695e-18" width="512" height="512"></rect>
            <g id="soil-site-icon" transform="translate(105.000000, 65.017476)" fill="#FFFFFF">
                <path d="M270.658745,274.918498 C264.116524,298.68347 253.314251,321.070555 238.773381,341 C239.993139,320.964265 237.902125,300.863719 232.583563,281.503316 C223.272828,247.360775 205.184516,218.610526 183,194.591494 C186.185936,146.670091 202.193637,95.1711102 230.698009,42 C275.925292,126.384185 289.748352,206.607491 270.658745,274.918498 L270.658745,274.918498 Z M151.995907,365.567655 C107.748977,355.264683 67.8826739,321.994128 36,269 C56.0627558,269.181664 74.7517053,271.166998 91.9242838,274.852192 C103.757162,298.741073 119.828104,321.059854 141.562756,339.69344 C155.501705,351.679404 171.154025,361.507453 188,368.850592 C175.905321,369.429323 163.787312,368.325062 151.995907,365.567655 L151.995907,365.567655 Z M80,143 C112.429771,160.088278 139.51786,179.638205 160.871496,201.219971 C159.78483,232.947902 164.079123,259.635311 170.16707,280.891462 C170.756226,282.975398 171.371567,284.994211 172,287 C151.392628,271.63097 128.035862,261.758321 104.364878,255.662808 C90.1858546,223.934877 81.8983919,186.111433 80,143 L80,143 Z M217.916811,334 C205.407126,315.648539 195.986367,295.43541 190.015148,274.139435 C185.598262,258.4207 182.912069,242.282798 182,226 C195.93767,244.50024 205.966476,264.242453 211.862676,284.954959 C217.192947,303.726881 218.351129,320.635841 217.916811,334 L217.916811,334 Z M200,351 C183.159593,344.176927 167.571406,334.546655 153.887365,322.510771 C140.651283,310.791723 129.228982,297.137755 120,282 C143.056318,290.566327 162.497983,302.992063 177.756979,319.133787 C188.213652,330.190476 195.288043,341.481859 200,351 Z M238.951321,15.4293047 L230.007384,0 L221.050447,15.4422705 C185.365698,77.0427971 168.907813,130.74715 163.369852,175.855176 C135.160051,150.662622 103.089276,131.745517 74.7104752,118.118459 L59.7995799,110.987268 L59.9035792,127.479768 C60.1115777,164.523065 64.7915448,209.358809 80.716433,251.510633 C58.0965919,247.958003 35.9577474,247.335644 16.5358838,248.113592 L0,248.761883 L7.83894493,263.283581 C53.9236212,348.663389 109.238233,376.760283 147.535964,385.291781 C159.729878,388.014599 171.000799,389 180.893729,389 C205.203558,389 221.167446,383.087594 222.10344,382.737517 L229.981384,379.755383 L230.007384,379.768349 L230.033384,379.742417 L230.267382,379.768349 L230.384382,379.431238 L236.871336,373.674422 C238.301326,372.390807 272.348087,341.674822 289.481966,281.643157 C317.782768,182.584428 277.62605,82.2161523 238.951321,15.4552363" id="Shape"></path>
            </g>
            <text id="Staging" font-family="SFPro-Medium, SF Pro" font-size="73" font-weight="400" fill="#FFFFFF">
                <tspan x="43.992555" y="107.017476">Staging</tspan>
            </text>
        </g>
    </g>
</svg>